<svg width="63" height="74" viewBox="0 0 63 74" fill="none" xmlns="http://www.w3.org/2000/svg">
<path d="M1 60.1148V66.6826C0.999999 67.4126 1.14394 68.1354 1.42359 68.8097C1.70325 69.484 2.11311 70.0965 2.62975 70.6122C3.14638 71.1279 3.75964 71.5367 4.43442 71.8151C5.10921 72.0935 5.83227 72.2362 6.56225 72.2349L50.4489 72.1565C51.0038 72.1564 51.5531 72.047 52.0656 71.8344C52.5781 71.6219 53.0437 71.3104 53.4357 70.9177C53.8277 70.5251 54.1385 70.0591 54.3503 69.5462C54.562 69.0334 54.6706 68.4838 54.6698 67.929L54.6588 61.5122C55.1277 61.2144 55.4036 60.765 55.6278 60.2615C55.9556 59.5262 56.3237 58.8109 56.7023 58.1008C56.8631 57.8064 56.9658 57.4839 57.0049 57.1508C57.0144 57.0681 56.9825 56.9574 57.0524 56.9133C57.7254 56.4753 57.905 55.7087 58.2475 55.0674C59.1865 53.3099 60.062 51.5215 60.9583 49.7427C61.0234 49.6139 61.1131 49.4577 61.0894 49.3308C60.9602 48.6506 61.2794 48.0217 61.2794 47.3558C61.2724 35.357 61.2724 23.358 61.2794 11.3588C61.2794 10.9788 61.2533 10.6102 61.1317 10.2535C61.0995 10.1764 61.0899 10.0917 61.1041 10.0094C61.4328 8.53212 61.363 7.04679 61.0922 5.58094C60.6828 3.36032 58.6954 1.48359 56.4638 1.15679C55.093 0.956343 53.7046 0.906467 52.348 1.25844C51.1573 1.56977 50.0979 2.25509 49.3259 3.21356C48.5538 4.17203 48.1098 5.35302 48.0592 6.58272C48.0274 7.41207 48.0559 8.24522 48.0535 9.07457C48.0535 9.40707 48.035 9.73957 48.196 10.0417C48.2435 10.1272 48.262 10.2179 48.2226 10.2834C47.9656 10.7109 48.0573 11.1817 48.0568 11.6358C48.053 23.4965 48.0519 35.3571 48.0535 47.2176C48.0535 47.6527 48.0174 48.0916 48.2254 48.5001C48.2416 48.5314 48.3 48.5248 48.2672 48.6055C48.0164 49.2292 48.358 49.7498 48.6145 50.2614C49.612 52.2564 50.5852 54.2637 51.683 56.1989C52.0568 56.8591 52.3399 57.5322 52.633 58.2186C52.984 59.0379 53.488 59.7861 53.838 60.6092C53.9435 60.8353 54.0944 61.0373 54.2812 61.2025C54.5059 61.4148 54.779 61.6058 54.6693 61.9972" stroke="black" stroke-width="2" stroke-linecap="round" stroke-linejoin="round"/>
<path d="M52.167 15.6851C52.3218 15.7872 52.3057 15.9463 52.3057 16.1002C52.3057 16.6313 52.3057 17.162 52.3057 17.6924C52.3057 25.8624 52.3057 34.031 52.3057 42.1981C52.3057 42.5112 52.2582 42.8304 52.5845 43.0289" stroke="black" stroke-width="2" stroke-linecap="round" stroke-linejoin="round"/>
<path d="M56.9783 15.9272V42.7866" stroke="black" stroke-width="2" stroke-linecap="round" stroke-linejoin="round"/>
<path d="M48.2905 10.1477C49.375 10.085 50.4594 10.1401 51.5438 10.1429C53.4476 10.1481 55.3519 10.0916 57.2547 10.1249C58.5021 10.1462 59.7471 10.1044 60.993 10.113" stroke="black" stroke-width="2" stroke-linecap="round" stroke-linejoin="round"/>
<path d="M48.3594 48.5669C48.6829 48.5436 49.0059 48.5009 49.3289 48.5005C52.8591 48.4957 56.3899 48.4944 59.9214 48.4967C60.2829 48.4967 60.6434 48.5 60.9944 48.6011" stroke="black" stroke-width="2" stroke-linecap="round" stroke-linejoin="round"/>
<path d="M56.9783 56.9777C56.7142 56.7682 56.4083 56.6979 56.0781 56.6994C55.1091 56.7032 54.1397 56.7046 53.1707 56.6994C52.8646 56.6954 52.5639 56.7804 52.3052 56.944" stroke="black" stroke-width="2" stroke-linecap="round" stroke-linejoin="round"/>
</svg>
